<?xml version="1.0" standalone="no"?>
<!DOCTYPE svg PUBLIC "-//W3C//DTD SVG 20010904//EN"
 "http://www.w3.org/TR/2001/REC-SVG-20010904/DTD/svg10.dtd">
<svg version="1.0" xmlns="http://www.w3.org/2000/svg"
 width="1024.000000pt" height="1024.000000pt" viewBox="0 0 1024.000000 1024.000000"
 preserveAspectRatio="xMidYMid meet">

<g transform="translate(0.000000,1024.000000) scale(0.100000,-0.100000)"
fill="#000000" stroke="none">
<path d="M0 5120 l0 -5120 5120 0 5120 0 0 5120 0 5120 -5120 0 -5120 0 0
-5120z m2445 868 c-17 -18 -50 -54 -74 -80 l-45 -48 -618 0 -618 0 0 -705 0
-705 392 0 c372 0 390 1 376 18 -8 9 -35 46 -60 82 -62 91 -243 353 -293 425
-65 94 -209 344 -202 351 2 2 117 -72 255 -165 l252 -169 23 28 c18 23 561
632 592 664 6 6 68 76 139 155 98 110 127 138 122 115 -21 -85 -311 -631 -692
-1300 -57 -100 -106 -188 -109 -195 -4 -12 38 -14 250 -11 l255 3 0 255 0 254
39 78 c22 42 58 104 80 137 l41 60 0 -472 0 -473 -810 0 -810 0 0 858 c0 472
3 862 7 865 3 4 351 7 772 7 l765 0 -29 -32z m3945 -702 l0 -665 26 -20 c14
-11 45 -23 70 -27 40 -6 44 -9 44 -35 l0 -29 -245 0 -245 0 0 29 c0 27 3 29
49 35 27 4 60 15 73 25 l23 19 0 582 0 582 -24 19 c-13 11 -43 24 -67 30 -37
10 -44 15 -44 35 0 13 1 24 3 25 31 8 298 57 315 58 l22 1 0 -664z m-2410 424
l0 -160 -23 0 c-20 0 -25 8 -36 53 -19 73 -46 114 -95 140 -37 20 -58 22 -223
25 l-183 4 0 -256 0 -256 163 3 c89 2 170 7 179 11 10 4 29 32 43 62 18 38 31
54 45 54 19 0 20 -8 20 -190 l0 -190 -22 0 c-18 0 -29 14 -53 63 -18 37 -40
67 -55 74 -16 8 -76 13 -173 13 l-148 0 3 -261 c3 -245 4 -262 22 -275 26 -19
280 -19 351 0 101 27 167 80 207 167 19 43 25 49 51 49 29 0 29 -1 24 -37 -3
-21 -13 -95 -23 -165 l-18 -128 -493 0 -493 0 0 29 c0 26 4 30 38 36 62 10 99
39 112 84 7 27 10 211 8 559 -3 595 5 547 -98 576 -56 16 -60 19 -60 47 l0 29
465 0 465 0 0 -160z m3387 133 c183 -61 267 -178 267 -373 0 -153 -64 -271
-185 -343 -103 -61 -153 -72 -319 -72 l-145 0 5 -217 c6 -249 4 -243 95 -262
31 -6 56 -14 55 -19 0 -4 0 -16 0 -27 0 -20 -7 -20 -271 -20 l-270 0 3 27 c3
25 9 29 63 41 41 8 67 21 83 38 l22 25 0 550 0 550 -24 24 c-14 13 -45 29 -70
36 -42 10 -46 14 -46 41 l0 30 338 -4 c309 -4 342 -6 399 -25z m-1665 -397
c21 -9 53 -30 73 -47 59 -52 65 -90 65 -433 0 -345 2 -352 65 -350 22 0 51 3
65 5 43 7 38 -33 -10 -74 -64 -54 -178 -74 -241 -42 -37 19 -69 70 -69 109 l0
29 -55 -52 c-30 -29 -80 -64 -111 -78 -49 -22 -66 -25 -134 -21 -148 9 -240
91 -248 224 -11 167 108 254 443 322 l90 19 3 94 c4 118 -8 160 -55 196 -51
39 -143 45 -193 11 -35 -24 -38 -32 -65 -155 -9 -38 -33 -53 -87 -53 -43 0
-54 4 -79 31 -84 90 16 215 221 275 63 19 272 12 322 -10z m2320 -38 c1 -35 2
-75 2 -90 1 -25 5 -22 63 42 35 37 82 78 106 89 52 25 135 28 177 6 38 -20 38
-43 4 -141 -31 -87 -45 -92 -107 -39 -66 57 -131 45 -201 -37 l-36 -42 0 -273
c0 -169 4 -282 10 -294 14 -26 55 -46 113 -54 44 -7 47 -9 47 -36 l0 -29 -260
0 -260 0 0 29 c0 27 4 29 46 36 29 4 56 16 70 30 l24 24 0 333 c0 380 2 368
-80 388 -45 11 -50 15 -50 39 0 26 2 27 138 52 204 39 192 41 194 -33z m1000
42 c221 -68 344 -286 311 -550 -21 -162 -103 -286 -238 -357 -133 -70 -323
-70 -458 -2 -60 31 -159 135 -189 199 -55 117 -63 299 -18 429 45 127 161 241
285 281 83 26 222 27 307 0z m-4474 -27 c-3 -23 -10 -28 -56 -39 -30 -6 -58
-16 -64 -22 -15 -15 -3 -55 72 -242 34 -85 80 -203 103 -262 23 -60 44 -108
47 -108 10 0 210 540 210 568 0 35 -25 59 -68 68 -27 6 -32 11 -32 35 l0 29
176 0 175 0 -3 -26 c-2 -20 -12 -29 -43 -40 -22 -7 -49 -24 -60 -37 -12 -13
-76 -156 -144 -318 -68 -162 -143 -340 -167 -397 -24 -57 -44 -107 -44 -111 0
-13 -100 -18 -109 -6 -4 6 -83 188 -176 405 -94 221 -179 407 -193 422 -14 15
-47 35 -74 44 -40 13 -48 20 -48 40 l0 24 251 0 250 0 -3 -27z"/>
<path d="M6988 5461 l3 -311 87 0 c217 0 318 88 330 288 6 110 -13 180 -64
240 -60 71 -100 86 -239 90 l-120 4 3 -311z"/>
<path d="M5517 4949 c-128 -34 -138 -39 -174 -85 -35 -47 -43 -132 -16 -183
53 -102 164 -101 271 2 l42 41 0 128 c0 70 -3 128 -7 127 -5 0 -56 -14 -116
-30z"/>
<path d="M8808 5366 c-56 -20 -85 -42 -118 -88 -62 -85 -91 -246 -71 -385 29
-200 116 -306 251 -306 103 0 174 58 221 182 27 70 37 251 19 344 -20 106 -83
207 -150 242 -41 21 -111 26 -152 11z"/>
</g>
</svg>
